<svg width="131" height="150" viewBox="0 0 131 150" fill="none" xmlns="http://www.w3.org/2000/svg">
<path fill-rule="evenodd" clip-rule="evenodd" d="M69.1766 49.2248L64.0028 55.6869L39.9873 15.511L86.8347 16.0452L83.389 23.6908L54.2101 23.3766L69.1766 49.2248Z" fill="white"/>
<path fill-rule="evenodd" clip-rule="evenodd" d="M76.2881 58.808L68.7473 57.7292L91.5793 17.2287L114.411 57.7292H106.221L92.0087 33.8185L76.2881 58.808Z" fill="white"/>
<path fill-rule="evenodd" clip-rule="evenodd" d="M72.8424 69.5747L68.9568 62.6832H115.919L92.2286 104.252L87.4842 96.5017L101.917 70.224L72.8424 69.5747Z" fill="white"/>
<path fill-rule="evenodd" clip-rule="evenodd" d="M60.5572 71.7322L65.5111 65.4796L90.0712 106.629L42.0403 106.19L45.9154 98.0099L75.6389 98.4393L60.5572 71.7322Z" fill="white"/>
<path fill-rule="evenodd" clip-rule="evenodd" d="M52.8069 63.3325L60.5572 63.7619L37.9452 105.551L14.4639 63.542L23.2929 63.3325L38.1546 88.5315L52.8069 63.3325Z" fill="white"/>
<path fill-rule="evenodd" clip-rule="evenodd" d="M61.2067 59.4469H12.9558L36.4371 17.6581L41.8204 24.9895L27.3881 51.0473H56.4727L61.2067 59.4469Z" fill="white"/>
<path fill-rule="evenodd" clip-rule="evenodd" d="M70.5801 0.104734L59.049 0V4.73397H70.2555L70.5801 0.104734Z" fill="white"/>
<path fill-rule="evenodd" clip-rule="evenodd" d="M75.3141 6.46206L54.5244 6.13739L55.4984 13.0289H73.8059L75.3141 6.46206Z" fill="white"/>
<path fill-rule="evenodd" clip-rule="evenodd" d="M20.7163 131.87L21.3238 132.006L19.2291 138.72H0V138.05H0.932131C1.3642 138.082 1.79735 138.003 2.1899 137.819C2.58244 137.636 2.92115 137.355 3.17343 137.002C3.50825 136.143 3.63738 135.218 3.55048 134.3V118.349C3.55048 116.789 3.3829 115.815 3.03728 115.448C2.76799 115.169 2.44099 114.952 2.07916 114.813C1.71733 114.674 1.32943 114.615 0.942604 114.642H0V113.971H11.217V114.642C10.6604 114.635 10.104 114.666 9.55172 114.736C9.19146 114.777 8.83882 114.868 8.50438 115.008C8.25183 115.106 8.02064 115.252 7.82361 115.438C7.66957 115.601 7.5327 115.78 7.41515 115.972C7.15376 116.879 7.05449 117.826 7.1219 118.768V134.332C7.1219 134.751 7.1219 135.117 7.1219 135.379C7.14216 135.636 7.19495 135.889 7.279 136.133C7.3392 136.317 7.43935 136.485 7.57225 136.625C7.70801 136.764 7.87244 136.871 8.05403 136.939C8.99328 137.111 9.9495 137.171 10.9028 137.117H12.7147C14.0653 137.183 15.4181 137.042 16.726 136.699C17.1067 136.562 17.4691 136.379 17.8047 136.154C18.1741 135.89 18.5085 135.58 18.7997 135.232C19.1558 134.794 19.4713 134.324 19.7423 133.829C20.1022 133.185 20.4239 132.52 20.7059 131.839L20.7163 131.87ZM33.6614 138.05V138.72H23.0414V138.05H23.9212C24.3386 138.099 24.7619 138.048 25.1556 137.901C25.5492 137.753 25.9017 137.513 26.1834 137.201C26.5753 136.317 26.727 135.345 26.6233 134.384V118.349C26.6233 117.763 26.6233 117.302 26.6233 116.925C26.6132 116.617 26.5675 116.311 26.4872 116.014C26.4376 115.81 26.3366 115.622 26.1939 115.469C26.0424 115.311 25.8653 115.18 25.6703 115.081C25.1548 114.794 24.5744 114.642 23.984 114.642H23.0414V113.971H33.6614V114.642H32.7712C32.3576 114.603 31.9408 114.665 31.5562 114.822C31.1715 114.979 30.8303 115.226 30.5613 115.542C30.1517 116.418 29.9922 117.389 30.1005 118.349V134.342C30.1005 134.929 30.1005 135.389 30.1005 135.777C30.1156 136.077 30.1612 136.376 30.2366 136.667C30.2921 136.874 30.3963 137.064 30.5404 137.222C30.6912 137.383 30.8683 137.518 31.064 137.62C31.5715 137.909 32.1454 138.061 32.7293 138.06L33.6614 138.05ZM56.2106 113.961V119.753H55.8022C55.7235 119.079 55.5617 118.418 55.3204 117.784C55.1227 117.291 54.8188 116.847 54.4302 116.485C54.0446 116.142 53.5862 115.891 53.0896 115.752C52.4914 115.596 51.8748 115.522 51.2567 115.532H47.7586V134.384C47.6421 135.361 47.8131 136.351 48.2509 137.233C48.5246 137.504 48.8531 137.713 49.2144 137.847C49.5756 137.98 49.9613 138.035 50.3455 138.008H51.1939V138.678H40.7205V138.008H41.6003C42.0221 138.048 42.4474 137.982 42.8371 137.815C43.2268 137.649 43.5686 137.387 43.8311 137.055C44.1803 136.21 44.317 135.293 44.2291 134.384V115.532H41.2651C40.6088 115.524 39.9533 115.577 39.3066 115.689C38.7899 115.78 38.3019 115.992 37.8822 116.307C37.465 116.651 37.1409 117.094 36.9396 117.595C36.6614 118.287 36.4747 119.012 36.3845 119.753H35.6828V113.961H56.2106ZM65.113 125.482H76.6337V118.349C76.6337 117.763 76.6337 117.302 76.6337 116.925C76.6244 116.617 76.5787 116.311 76.4976 116.014C76.4431 115.806 76.3429 115.612 76.2043 115.448C76.0441 115.296 75.8645 115.166 75.6702 115.061C75.1607 114.777 74.5881 114.625 74.0049 114.621H73.1251V113.95H83.6823V114.621H82.7397C82.4935 114.621 82.2479 114.645 82.0066 114.694C81.7524 114.741 81.5058 114.822 81.2734 114.935C81.0479 115.039 80.8395 115.177 80.6555 115.343C80.4818 115.51 80.3491 115.714 80.268 115.94C80.0941 116.731 80.0272 117.541 80.069 118.349V134.321C80.069 134.908 80.069 135.368 80.069 135.756C80.0902 136.059 80.1357 136.361 80.2051 136.657C80.2568 136.863 80.3574 137.053 80.4984 137.212C80.6526 137.366 80.8292 137.497 81.0221 137.599C81.5364 137.89 82.1176 138.041 82.7083 138.039H83.588V138.709H73.0413V138.039H73.9211C74.3307 138.079 74.744 138.025 75.129 137.879C75.5141 137.734 75.8605 137.502 76.1415 137.201C76.5437 136.32 76.6994 135.347 76.5918 134.384V126.843H65.0711V134.384C65.0711 134.97 65.0711 135.431 65.0711 135.819C65.0914 136.119 65.1369 136.417 65.2073 136.709C65.2628 136.916 65.3669 137.106 65.511 137.264C65.6635 137.424 65.8402 137.558 66.0347 137.662C66.5421 137.951 67.1161 138.102 67.6999 138.102H68.5902V138.772H58.0435V138.102H58.9232C59.34 138.141 59.7601 138.08 60.1482 137.923C60.5364 137.766 60.8813 137.519 61.1541 137.201C61.5459 136.317 61.6976 135.345 61.5939 134.384V118.349C61.5939 117.763 61.5939 117.302 61.5939 116.925C61.5838 116.617 61.5381 116.311 61.4578 116.014C61.4077 115.804 61.307 115.61 61.1645 115.448C61.0123 115.291 60.8354 115.16 60.6409 115.061C60.1292 114.773 59.5522 114.621 58.9651 114.621H58.0854V113.95H68.6635V114.621H67.7732C67.5235 114.62 67.2743 114.644 67.0296 114.694C66.7827 114.743 66.5432 114.824 66.3174 114.935C66.0984 115.039 65.8969 115.177 65.7205 115.343C65.5435 115.509 65.4073 115.713 65.3225 115.94C65.1414 116.73 65.0709 117.54 65.113 118.349V125.429V125.482ZM98.0832 113.437C99.6598 113.426 101.221 113.748 102.665 114.381C104.109 115.015 105.402 115.946 106.462 117.113C107.632 118.32 108.548 119.749 109.156 121.316C109.764 122.883 110.052 124.556 110.002 126.236C110.058 127.954 109.772 129.667 109.161 131.274C108.549 132.882 107.625 134.352 106.441 135.599C105.335 136.766 104.004 137.697 102.528 138.336C101.053 138.975 99.463 139.308 97.855 139.316C96.247 139.324 94.6541 139.006 93.1723 138.382C91.6905 137.757 90.3505 136.839 89.2332 135.683C88.0595 134.42 87.1486 132.936 86.5534 131.318C85.9583 129.699 85.6908 127.979 85.7665 126.257C85.7073 124.459 86.0348 122.669 86.7268 121.008C87.4189 119.348 88.4593 117.855 89.7778 116.632C92.0416 114.502 95.0493 113.344 98.1565 113.406L98.0832 113.437ZM97.7271 114.788C96.5672 114.765 95.4208 115.039 94.3966 115.584C93.4036 116.136 92.5619 116.924 91.9458 117.878C91.2405 118.981 90.7271 120.196 90.4271 121.47C89.7428 124.607 89.7428 127.854 90.4271 130.991C90.712 132.309 91.2184 133.57 91.9248 134.719C92.5368 135.713 93.377 136.546 94.3756 137.149C95.4011 137.736 96.5668 138.033 97.748 138.008C98.8296 138.017 99.9006 137.795 100.89 137.358C101.893 136.902 102.768 136.204 103.435 135.327C104.219 134.277 104.791 133.085 105.121 131.818C105.575 130.16 105.797 128.447 105.781 126.728C105.799 125.036 105.634 123.347 105.289 121.69C105.014 120.359 104.499 119.088 103.77 117.941C103.141 116.961 102.277 116.155 101.257 115.595C100.169 115.037 98.9595 114.76 97.7376 114.788H97.7271ZM128.561 113.437V122.004H127.89C127.771 120.617 127.375 119.268 126.728 118.035C126.449 117.543 126.096 117.098 125.681 116.715C125.272 116.312 124.814 115.96 124.319 115.668C123.822 115.395 123.295 115.181 122.748 115.029C122.205 114.879 121.646 114.802 121.083 114.799C120.499 114.823 119.926 114.961 119.397 115.207C118.883 115.399 118.41 115.687 118.004 116.056C117.618 116.394 117.304 116.808 117.082 117.27C116.865 117.71 116.754 118.194 116.757 118.684C116.742 119.311 116.906 119.928 117.229 120.465C117.575 121.003 118.015 121.474 118.527 121.858C119.143 122.323 119.795 122.74 120.475 123.104L122.905 124.403C123.89 124.926 124.822 125.45 125.712 125.932C126.546 126.4 127.329 126.955 128.048 127.587C128.708 128.181 129.254 128.891 129.66 129.681C130.079 130.545 130.283 131.497 130.257 132.457C130.262 133.368 130.066 134.27 129.681 135.096C129.302 135.93 128.757 136.678 128.079 137.296C127.354 137.937 126.521 138.444 125.618 138.793C124.613 139.167 123.548 139.352 122.476 139.338H121.428C121.134 139.326 120.84 139.299 120.549 139.254C120.259 139.205 119.972 139.139 119.69 139.055C119.386 138.961 119.03 138.835 118.642 138.678C118.352 138.563 118.054 138.465 117.752 138.385L116.925 138.154L116.275 138.008C116.161 137.996 116.045 137.996 115.93 138.008C115.797 138 115.664 138.02 115.539 138.066C115.415 138.113 115.302 138.186 115.207 138.28C114.978 138.611 114.844 138.999 114.82 139.401H114.149V130.917H114.82C114.953 131.704 115.139 132.48 115.375 133.242C115.552 133.826 115.794 134.388 116.097 134.918C116.386 135.375 116.738 135.788 117.145 136.143C117.58 136.527 118.062 136.854 118.58 137.117C119.122 137.396 119.695 137.61 120.287 137.756C120.903 137.912 121.536 137.989 122.172 137.987C122.884 137.999 123.594 137.886 124.267 137.652C124.832 137.454 125.357 137.156 125.817 136.772C126.235 136.417 126.567 135.974 126.791 135.473C127.015 134.991 127.13 134.465 127.126 133.934C127.153 133.234 126.982 132.541 126.634 131.933C126.29 131.369 125.842 130.875 125.314 130.477C124.704 130.019 124.06 129.61 123.387 129.252C122.654 128.875 121.879 128.425 121.062 127.943C120.245 127.461 119.26 126.895 118.391 126.382C117.585 125.918 116.827 125.374 116.129 124.759C115.484 124.188 114.951 123.503 114.558 122.738C114.141 121.899 113.936 120.971 113.961 120.035C113.956 119.17 114.146 118.315 114.516 117.532C114.87 116.738 115.383 116.025 116.024 115.438C116.692 114.828 117.466 114.346 118.307 114.013C119.231 113.666 120.211 113.493 121.198 113.5C122.645 113.533 124.071 113.86 125.387 114.464C125.831 114.709 126.318 114.866 126.822 114.924C127.111 114.936 127.393 114.834 127.608 114.642C127.87 114.312 128.037 113.918 128.089 113.5L128.561 113.437Z" fill="white"/>
<path fill-rule="evenodd" clip-rule="evenodd" d="M25.6807 149.078L25.2828 148.701C25.069 148.939 24.8073 149.129 24.5149 149.259C24.2226 149.389 23.906 149.456 23.5861 149.455C23.3091 149.447 23.0365 149.384 22.7841 149.27C22.5316 149.156 22.3044 148.993 22.1154 148.79C21.9264 148.587 21.7795 148.349 21.6832 148.09C21.5869 147.83 21.543 147.553 21.5542 147.277C21.5459 147.002 21.5918 146.727 21.6894 146.47C21.787 146.213 21.9343 145.977 22.123 145.777C22.3117 145.576 22.5381 145.415 22.7891 145.302C23.0401 145.19 23.311 145.127 23.5861 145.119C23.8959 145.119 24.2025 145.182 24.487 145.304C24.7716 145.427 25.0281 145.606 25.2409 145.831L25.6493 145.402C25.3791 145.122 25.0527 144.903 24.6917 144.759C24.3307 144.614 23.9432 144.548 23.5546 144.564C23.2031 144.569 22.856 144.645 22.5339 144.786C22.2117 144.926 21.9207 145.13 21.678 145.384C21.4353 145.639 21.2456 145.939 21.1201 146.267C20.9945 146.596 20.9356 146.946 20.9468 147.298C20.9355 147.65 20.9955 148.001 21.1234 148.33C21.2512 148.659 21.4442 148.959 21.6907 149.211C21.9372 149.463 22.2321 149.663 22.5579 149.799C22.8836 149.934 23.2333 150.003 23.5861 150C23.9809 150.005 24.3722 149.926 24.7337 149.767C25.0951 149.608 25.4181 149.373 25.6807 149.078ZM35.9761 147.277C35.9903 146.919 35.9315 146.562 35.8033 146.227C35.6751 145.893 35.4801 145.588 35.2302 145.331C34.9804 145.074 34.6808 144.871 34.3499 144.734C34.019 144.597 33.6636 144.528 33.3054 144.533C32.9475 144.53 32.5928 144.599 32.2621 144.736C31.9315 144.873 31.6317 145.074 31.3807 145.329C31.1296 145.584 30.9323 145.887 30.8006 146.22C30.6688 146.553 30.6053 146.908 30.6137 147.266C30.6137 147.977 30.8962 148.659 31.399 149.162C31.9018 149.665 32.5838 149.947 33.2949 149.947C34.006 149.947 34.688 149.665 35.1908 149.162C35.6936 148.659 35.9761 147.977 35.9761 147.266V147.277ZM35.3581 147.277C35.3666 147.557 35.3186 147.836 35.2171 148.098C35.1156 148.359 34.9627 148.597 34.7673 148.799C34.5719 149 34.3382 149.16 34.0799 149.269C33.8215 149.378 33.5439 149.434 33.2635 149.434C32.9812 149.434 32.7018 149.378 32.442 149.267C32.1823 149.157 31.9475 148.995 31.7519 148.791C31.5562 148.588 31.4037 148.347 31.3035 148.083C31.2033 147.819 31.1575 147.538 31.1688 147.256C31.1604 146.975 31.2083 146.696 31.3098 146.435C31.4113 146.173 31.5643 145.935 31.7596 145.734C31.955 145.533 32.1888 145.373 32.4471 145.263C32.7054 145.154 32.983 145.098 33.2635 145.098C33.5457 145.098 33.8252 145.155 34.0849 145.265C34.3447 145.376 34.5794 145.538 34.7751 145.741C34.9707 145.944 35.1232 146.185 35.2234 146.449C35.3236 146.713 35.3694 146.995 35.3581 147.277ZM41.5165 149.895H45.0356V149.34H42.1135V144.637H41.5165V149.874V149.895ZM50.4503 149.895H54.0008V149.34H51.0473V144.637H50.4503V149.874V149.895ZM63.1859 144.658H59.3841V149.895H63.2173V149.35H59.9811V147.507H62.8403V146.973H59.9811V145.182H63.1859V144.637V144.658ZM73.2089 149.078L72.8109 148.701C72.5971 148.939 72.3355 149.129 72.0431 149.259C71.7507 149.389 71.4342 149.456 71.1143 149.455C70.5623 149.428 70.0434 149.184 69.6707 148.776C69.2979 148.368 69.1015 147.829 69.1243 147.277C69.1159 147.002 69.1619 146.727 69.2595 146.47C69.3571 146.213 69.5044 145.977 69.6931 145.777C69.8818 145.576 70.1082 145.415 70.3592 145.302C70.6102 145.19 70.881 145.127 71.1562 145.119C71.466 145.119 71.7726 145.182 72.0571 145.304C72.3417 145.427 72.5982 145.606 72.8109 145.831L73.2194 145.402C72.9492 145.122 72.6228 144.903 72.2618 144.759C71.9008 144.614 71.5132 144.548 71.1247 144.564C70.4331 144.607 69.7838 144.912 69.3092 145.417C68.8347 145.922 68.5705 146.589 68.5705 147.282C68.5705 147.975 68.8347 148.642 69.3092 149.147C69.7838 149.652 70.4331 149.957 71.1247 150C71.5195 150.005 71.9109 149.926 72.2723 149.767C72.6337 149.608 72.9567 149.373 73.2194 149.078H73.2089ZM80.5403 145.203H82.2998V144.658H78.1524V145.203H79.9224V149.916H80.5194V145.203H80.5403ZM87.7565 144.658V149.895H88.343V144.658H87.7565ZM99.2772 147.277C99.2914 146.919 99.2326 146.562 99.1044 146.227C98.9762 145.893 98.7812 145.588 98.5313 145.331C98.2815 145.074 97.9819 144.871 97.651 144.734C97.3201 144.597 96.9647 144.528 96.6065 144.533C96.2486 144.53 95.8939 144.599 95.5632 144.736C95.2326 144.873 94.9328 145.074 94.6818 145.329C94.4307 145.584 94.2334 145.887 94.1017 146.22C93.9699 146.553 93.9064 146.908 93.9148 147.266C93.9063 147.621 93.9694 147.973 94.1002 148.303C94.231 148.632 94.4269 148.932 94.6762 149.185C94.9255 149.437 95.223 149.636 95.5511 149.771C95.8791 149.905 96.2309 149.973 96.5855 149.968C96.9429 149.973 97.2974 149.905 97.628 149.769C97.9586 149.633 98.2584 149.433 98.5096 149.178C98.7609 148.924 98.9583 148.622 99.0902 148.29C99.222 147.958 99.2856 147.602 99.2772 147.245V147.277ZM98.6592 147.277C98.6677 147.557 98.6197 147.836 98.5182 148.098C98.4167 148.359 98.2638 148.597 98.0684 148.799C97.873 149 97.6393 149.16 97.381 149.269C97.1226 149.378 96.845 149.434 96.5646 149.434C96.2823 149.434 96.0029 149.378 95.7431 149.267C95.4834 149.157 95.2486 148.995 95.053 148.791C94.8573 148.588 94.7048 148.347 94.6046 148.083C94.5044 147.819 94.4586 147.538 94.4699 147.256C94.4615 146.975 94.5094 146.696 94.6109 146.435C94.7124 146.173 94.8654 145.935 95.0607 145.734C95.2561 145.533 95.4899 145.373 95.7482 145.263C96.0065 145.154 96.2841 145.098 96.5646 145.098C96.8468 145.098 97.1263 145.155 97.386 145.265C97.6458 145.376 97.8805 145.538 98.0762 145.741C98.2718 145.944 98.4243 146.185 98.5245 146.449C98.6247 146.713 98.6705 146.995 98.6592 147.277ZM108.682 148.848L105.373 144.658H104.818V149.895H105.394V145.58L108.787 149.895H109.258V144.658H108.682V148.848Z" fill="white"/>
</svg>
