<svg width="30" height="28" viewBox="0 0 30 28" fill="none" xmlns="http://www.w3.org/2000/svg">
<path d="M27.8112 3.35172C26.3315 1.67278 24.2788 0.748169 22.0312 0.748169C18.8702 0.748169 16.869 2.63606 15.7468 4.21985C15.4556 4.63083 15.2079 5.04291 15 5.43069C14.7921 5.04291 14.5444 4.63083 14.2532 4.21985C13.131 2.63606 11.1298 0.748169 7.96875 0.748169C5.72121 0.748169 3.6685 1.67284 2.18877 3.35178C0.777363 4.95338 0 7.09838 0 9.39163C0 11.8879 0.97459 14.2097 3.06709 16.6983C4.93723 18.9225 7.62768 21.2151 10.7432 23.87C11.9041 24.8593 13.1046 25.8823 14.3827 27.0006L14.4211 27.0342C14.5868 27.1793 14.7934 27.2518 15 27.2518C15.2066 27.2518 15.4132 27.1792 15.5789 27.0342L15.6173 27.0006C16.8954 25.8823 18.0959 24.8593 19.257 23.8699C22.3723 21.2152 25.0628 18.9225 26.9329 16.6983C29.0254 14.2096 30 11.8879 30 9.39163C30 7.09838 29.2226 4.95338 27.8112 3.35172ZM18.1168 22.532C17.116 23.3848 16.086 24.2625 15 25.2066C13.914 24.2626 12.884 23.3849 11.883 22.5319C5.78584 17.3362 1.75781 13.9038 1.75781 9.39163C1.75781 7.52659 2.3792 5.79432 3.50754 4.51399C4.64883 3.21913 6.23314 2.50598 7.96875 2.50598C10.3787 2.50598 11.9365 3.99063 12.8189 5.2361C13.6104 6.35313 14.0235 7.47919 14.1643 7.91143C14.2822 8.27325 14.6195 8.51811 15 8.51811C15.3805 8.51811 15.7178 8.27325 15.8357 7.91143C15.9765 7.47919 16.3896 6.35313 17.1811 5.23604C18.0635 3.99063 19.6213 2.50598 22.0312 2.50598C23.7669 2.50598 25.3512 3.21913 26.4924 4.51399C27.6208 5.79432 28.2422 7.52659 28.2422 9.39163C28.2422 13.9038 24.2142 17.3362 18.1168 22.532Z" fill="white"/>
</svg>
