<svg width="16" height="16" viewBox="0 0 16 16" fill="none" xmlns="http://www.w3.org/2000/svg">
<path d="M14.6182 6.58275H9.91932C9.76668 6.58275 9.64291 6.45584 9.64291 6.2993V1.48071C9.64291 0.698048 9.0241 0.0634766 8.26088 0.0634766C7.49766 0.0634766 6.87884 0.698048 6.87884 1.48071V6.2993C6.87884 6.45584 6.75508 6.58275 6.60244 6.58275H1.90352C1.1403 6.58275 0.521484 7.21732 0.521484 7.99998C0.521484 8.78265 1.1403 9.41722 1.90352 9.41722H6.60244C6.75508 9.41722 6.87884 9.54413 6.87884 9.70066V14.5193C6.87884 15.3019 7.49766 15.9365 8.26088 15.9365C9.0241 15.9365 9.64291 15.3019 9.64291 14.5193V9.70066C9.64291 9.54413 9.76668 9.41722 9.91932 9.41722H14.6182C15.3815 9.41722 16.0003 8.78265 16.0003 7.99998C16.0003 7.21732 15.3815 6.58275 14.6182 6.58275Z" fill="#1E1F21"/>
</svg>
