<svg width="22" height="24" viewBox="0 0 22 24" fill="none" xmlns="http://www.w3.org/2000/svg">
<path d="M13.8511 16.003L14.0044 16.7845C14.0589 17.0622 14.1817 17.3185 14.3721 17.5236L19.2592 22.7893C19.2593 22.7894 19.2593 22.7894 19.2593 22.7894C19.7743 23.3431 20.5877 23.3416 21.0979 22.7903L21.0984 22.7897C21.6322 22.2146 21.6315 21.2715 21.0989 20.6995L21.0984 20.6989L16.2114 15.4318C16.2113 15.4317 16.2112 15.4315 16.2111 15.4314C16.0229 15.2294 15.7932 15.1046 15.5548 15.0503L14.8581 14.8917L15.2458 14.2915C17.4613 10.8615 17.1522 6.09976 14.3244 3.05213C11.1662 -0.350697 6.0413 -0.350709 2.88306 3.05209L13.8511 16.003ZM13.8511 16.003L13.2139 16.4806M13.8511 16.003L13.2139 16.4806M13.2139 16.4806C10.0642 18.8415 5.69721 18.5216 2.88306 15.4903L13.2139 16.4806ZM2.88295 15.4901C-0.29433 12.0651 -0.294316 6.47718 2.88299 3.05217L2.88295 15.4901Z" fill="white" stroke="white"/>
</svg>
