<svg width="114" height="114" viewBox="0 0 114 114" fill="none" xmlns="http://www.w3.org/2000/svg">
<circle cx="57" cy="57" r="56" stroke="#1E1F21" stroke-width="2"/>
<path d="M73.2226 56.0215H58.6552L61.2591 53.4175C61.3489 53.3278 61.3993 53.2061 61.3993 53.0792C61.3993 52.9522 61.3489 52.8305 61.2591 52.7408C61.1694 52.651 61.0477 52.6006 60.9208 52.6006C60.7938 52.6006 60.6721 52.651 60.5824 52.7408L57.1622 56.1609C57.1397 56.1836 57.1194 56.2084 57.1018 56.235C57.095 56.2454 57.0903 56.2566 57.0843 56.2673C57.0649 56.2966 57.0511 56.3292 57.0436 56.3636C57.0392 56.3778 57.0337 56.3909 57.0307 56.4065C57.0184 56.4683 57.0184 56.532 57.0307 56.5938C57.0337 56.6086 57.0392 56.6211 57.0433 56.6364C57.0473 56.6522 57.0521 56.6677 57.0578 56.6829C57.0659 56.7 57.075 56.7167 57.0851 56.7327C57.0911 56.7434 57.0958 56.7548 57.1029 56.7652C57.1205 56.7919 57.1408 56.8167 57.1633 56.8393L60.5824 60.2592C60.6721 60.349 60.7938 60.3994 60.9208 60.3994C61.0477 60.3994 61.1694 60.349 61.2591 60.2592C61.3489 60.1695 61.3993 60.0478 61.3993 59.9208C61.3993 59.7939 61.3489 59.6722 61.2591 59.5825L58.6552 56.9785H73.2226C73.3495 56.9785 73.4712 56.9281 73.5609 56.8384C73.6507 56.7486 73.7011 56.6269 73.7011 56.5C73.7011 56.3731 73.6507 56.2514 73.5609 56.1616C73.4712 56.0719 73.3495 56.0215 73.2226 56.0215Z" fill="#1E1F21"/>
<path d="M66.2502 58.7559C66.1233 58.7559 66.0016 58.8063 65.9119 58.896C65.8221 58.9858 65.7717 59.1075 65.7717 59.2344V69.3242H53.4558V43.6758H65.7717V53.7656C65.7717 53.8925 65.8221 54.0143 65.9119 54.104C66.0016 54.1937 66.1233 54.2442 66.2502 54.2442C66.3771 54.2442 66.4988 54.1937 66.5886 54.104C66.6783 54.0143 66.7287 53.8925 66.7287 53.7656V43.1973C66.7287 43.0704 66.6783 42.9487 66.5886 42.8589C66.4988 42.7692 66.3771 42.7188 66.2502 42.7188H53.4558V40.7774C53.4558 40.6976 53.436 40.6191 53.3979 40.549C53.3599 40.4789 53.305 40.4194 53.2381 40.3759C53.1712 40.3324 53.0946 40.3064 53.0151 40.3001C52.9356 40.2938 52.8557 40.3075 52.7829 40.3399L41.8979 45.1778C41.8133 45.2154 41.7414 45.2768 41.691 45.3544C41.6406 45.4321 41.6138 45.5227 41.6138 45.6153V67.385C41.6138 67.4776 41.6406 67.5682 41.691 67.6459C41.7414 67.7235 41.8133 67.7849 41.8979 67.8225L52.7829 72.6602C52.8557 72.6926 52.9356 72.7062 53.0151 72.7C53.0946 72.6937 53.1712 72.6676 53.2381 72.6241C53.305 72.5806 53.3599 72.5211 53.3979 72.451C53.436 72.3809 53.4558 72.3024 53.4558 72.2227V70.2813H66.2502C66.3771 70.2813 66.4988 70.2309 66.5886 70.1411C66.6783 70.0514 66.7287 69.9297 66.7287 69.8027V59.2344C66.7287 59.1075 66.6783 58.9858 66.5886 58.896C66.4988 58.8063 66.3771 58.7559 66.2502 58.7559ZM52.4988 71.4866L42.5705 67.0738V45.9262L52.4988 41.5135V71.4866Z" fill="#1E1F21"/>
<path d="M43.5752 65.5461C43.7021 65.5461 43.8238 65.4957 43.9136 65.406C44.0033 65.3162 44.0537 65.1945 44.0537 65.0676V57.2292C44.0537 57.1023 44.0033 56.9806 43.9136 56.8909C43.8238 56.8011 43.7021 56.7507 43.5752 56.7507C43.4483 56.7507 43.3266 56.8011 43.2368 56.8909C43.1471 56.9806 43.0967 57.1023 43.0967 57.2292V65.0676C43.0967 65.1945 43.1471 65.3162 43.2368 65.406C43.3266 65.4957 43.4483 65.5461 43.5752 65.5461Z" fill="#1E1F21"/>
</svg>
