<svg width="114" height="114" viewBox="0 0 114 114" fill="none" xmlns="http://www.w3.org/2000/svg">
<circle cx="57" cy="57" r="56" stroke="#1E1F21" stroke-width="2"/>
<path d="M69.8744 61.6256C67.9683 59.7196 65.6996 58.3086 63.2243 57.4544C65.8755 55.6285 67.6172 52.5726 67.6172 49.1172C67.6172 43.5386 63.0786 39 57.5 39C51.9214 39 47.3828 43.5386 47.3828 49.1172C47.3828 52.5726 49.1245 55.6285 51.7757 57.4544C49.3004 58.3086 47.0317 59.7196 45.1257 61.6256C41.8203 64.931 40 69.3256 40 74H42.7344C42.7344 65.8582 49.3582 59.2344 57.5 59.2344C65.6418 59.2344 72.2656 65.8582 72.2656 74H75C75 69.3256 73.1797 64.931 69.8744 61.6256ZM57.5 56.5C53.4291 56.5 50.1172 53.1881 50.1172 49.1172C50.1172 45.0463 53.4291 41.7344 57.5 41.7344C61.5709 41.7344 64.8828 45.0463 64.8828 49.1172C64.8828 53.1881 61.5709 56.5 57.5 56.5Z" fill="#1E1F21"/>
</svg>
